
<svg width="68" height="68" viewBox="0 0 68 68" fill="none" xmlns="http://www.w3.org/2000/svg">
<path d="M0 34C0 52.7777 15.2223 68 34 68C52.7777 68 68 52.7777 68 34C68 15.2223 52.7777 0 34 0C15.2223 0 0 15.2223 0 34Z" fill="white"/>
<path d="M17.015 23.9341L28.1798 33.6797L17.015 43.2623C17.015 43.2623 16.9812 44.5344 17.015 45.6142C17.0999 48.3506 19.255 50.5921 21.9922 50.5921H45.6292C46.1902 50.517 47.8557 50.2279 49.1886 48.8199C51.331 46.5566 50.6687 43.4605 50.6071 43.1924L28.6484 24.0437L50.6071 23.8087V21.9779C50.6034 20.6588 50.0777 19.3949 49.145 18.4622C48.2122 17.5294 46.9483 17.0038 45.6292 17H21.9922C21.3389 17.0004 20.6921 17.1297 20.0889 17.3806C19.4857 17.6315 18.9379 17.999 18.4771 18.4621C17.0548 19.8843 17.015 21.643 17.015 21.9779M28.4089 43.1384L33.8486 38.5344L39.3131 43.2142L28.4089 43.1384Z" fill="#1723C7"/>
</svg>
